<svg width="539" height="329" viewBox="0 0 539 329" fill="none" xmlns="http://www.w3.org/2000/svg">
<g opacity="0.2" clip-path="url(#clip0_0_6)">
<rect width="539" height="329" fill="white"/>
<path d="M319.873 328.319H319.872C291.014 328.518 262.146 328.49 233.283 328.461C228.477 328.456 223.671 328.452 218.865 328.448C218.492 328.448 218.111 328.401 217.607 328.323C217.459 328.3 217.301 328.274 217.13 328.246C216.834 328.198 216.501 328.144 216.124 328.088V220.247V219.069L215.276 219.887C214.274 220.854 213.425 221.664 212.682 222.374C211.237 223.754 210.189 224.755 209.178 225.792C201.335 233.763 193.496 241.737 185.656 249.711C161.152 274.634 136.649 299.556 112.059 324.382L112.059 324.382C111.081 325.37 109.808 326.352 108.458 327.085C107.102 327.822 105.708 328.287 104.481 328.293L104.48 328.293C77.362 328.512 50.2365 328.487 23.1133 328.462C16.5664 328.456 10.0196 328.45 3.47301 328.448C3.0834 328.448 2.69093 328.412 2.15908 328.353C2.03587 328.339 1.90547 328.324 1.76656 328.308C1.41537 328.267 1.00982 328.22 0.528691 328.171V321.812C0.528691 314.721 0.52318 307.629 0.517669 300.537C0.498073 275.32 0.478476 250.102 0.706597 224.892L0.706603 224.891C0.731091 221.64 2.36161 217.553 4.60462 215.271L4.60536 215.27C43.874 175.159 83.2124 135.111 122.555 95.0592C152.06 65.0227 181.567 34.9836 211.05 4.91287L211.05 4.91267C212.651 3.27732 214.232 2.1744 215.954 1.47972C217.677 0.784605 219.569 0.486991 221.81 0.499654C245.317 0.635396 268.825 0.618427 292.33 0.601461C300.165 0.595805 308 0.59015 315.834 0.59015H322.921V109.011V110.183L323.767 109.372C324.908 108.279 325.875 107.368 326.725 106.566C328.137 105.235 329.229 104.205 330.272 103.144C334.299 99.0512 338.327 94.9583 342.355 90.8654C370.535 62.2287 398.72 33.5877 426.798 4.8476L426.798 4.84726C428.303 3.30362 429.779 2.21648 431.397 1.51516C433.013 0.814405 434.797 0.487051 436.935 0.499654L436.935 0.499656C462.477 0.627153 488.012 0.613282 514.01 0.59916C522.116 0.594757 530.268 0.59033 538.478 0.590155V7.75574C538.478 14.6071 538.482 21.4588 538.486 28.3106C538.501 53.7672 538.516 79.226 538.325 104.677C538.301 107.574 536.919 111.22 534.948 113.238C465.748 183.895 396.421 254.397 326.993 324.809C326.091 325.72 324.898 326.6 323.627 327.252C322.351 327.907 321.032 328.313 319.873 328.319Z" stroke="black"/>
</g>
<defs>
<clipPath id="clip0_0_6">
<rect width="539" height="329" fill="white"/>
</clipPath>
</defs>
</svg>
