<svg width="127" height="25" viewBox="0 0 127 25" fill="none" xmlns="http://www.w3.org/2000/svg">
<path d="M122.602 23.9585L116.3 15.7207H113.543L121.322 6.26861H125.391L118.236 14.8674L118.401 12.8982L126.999 23.9585H122.602ZM110.327 23.9585V0H114.167V23.9585H110.327Z" fill="white"/>
<path d="M103.612 23.9584V18.6744H102.988V12.7011C102.988 11.6071 102.704 10.7757 102.135 10.2068C101.566 9.63795 100.724 9.35351 99.6078 9.35351C98.9952 9.35351 98.3169 9.36445 97.573 9.38633C96.8291 9.40821 96.0961 9.44103 95.374 9.48479C94.6739 9.50667 94.0503 9.53949 93.5033 9.58325V6.26843C93.9847 6.22468 94.5098 6.19186 95.0787 6.16997C95.6694 6.12622 96.2711 6.0934 96.8838 6.07152C97.5183 6.04964 98.12 6.0387 98.6889 6.0387C100.483 6.0387 101.971 6.26844 103.152 6.72791C104.334 7.18739 105.209 7.92037 105.778 8.92685C106.369 9.91145 106.664 11.2352 106.664 12.8981V23.9584H103.612ZM97.8684 24.4179C96.5774 24.4179 95.4506 24.1991 94.4879 23.7615C93.5252 23.302 92.7813 22.6456 92.2562 21.7923C91.731 20.9171 91.4685 19.8778 91.4685 18.6744C91.4685 17.4053 91.7639 16.3551 92.3546 15.5237C92.9672 14.6922 93.8315 14.0686 94.9474 13.6529C96.0633 13.2372 97.3979 13.0293 98.9514 13.0293H103.382V15.5565H98.853C97.6933 15.5565 96.8072 15.8409 96.1945 16.4098C95.5819 16.9568 95.2756 17.6788 95.2756 18.5759C95.2756 19.473 95.5819 20.195 96.1945 20.742C96.8072 21.2671 97.6933 21.5297 98.853 21.5297C99.5312 21.5297 100.177 21.4094 100.789 21.1687C101.402 20.9061 101.905 20.4795 102.299 19.8887C102.715 19.2979 102.945 18.4665 102.988 17.3944L103.973 18.6744C103.863 19.9215 103.557 20.9718 103.054 21.8251C102.573 22.6565 101.894 23.302 101.019 23.7615C100.166 24.1991 99.1155 24.4179 97.8684 24.4179Z" fill="white"/>
<path d="M80.6895 24.5475C79.136 24.5475 77.7685 24.2959 76.587 23.7926C75.4055 23.2675 74.41 22.5783 73.6004 21.725C72.7908 20.8717 72.1782 19.9089 71.7625 18.8368C71.3468 17.7428 71.1389 16.616 71.1389 15.4564V14.8C71.1389 13.6403 71.3468 12.5135 71.7625 11.4195C72.2001 10.3255 72.8237 9.35186 73.6332 8.49854C74.4647 7.62334 75.4711 6.93412 76.6527 6.43088C77.8342 5.92764 79.1798 5.67603 80.6895 5.67603C82.1992 5.67603 83.5339 5.92764 84.6935 6.43088C85.8751 6.93412 86.8815 7.62334 87.713 8.49854C88.5444 9.35186 89.168 10.3255 89.5837 11.4195C90.0213 12.5135 90.2401 13.6403 90.2401 14.8V15.4564C90.2401 16.616 90.0322 17.7428 89.6165 18.8368C89.2008 19.9089 88.5882 20.8717 87.7786 21.725C86.9691 22.5783 85.9735 23.2675 84.792 23.7926C83.6105 24.2959 82.243 24.5475 80.6895 24.5475ZM80.6895 21.1999C81.8929 21.1999 82.9213 20.9373 83.7746 20.4122C84.6279 19.8652 85.2734 19.1322 85.711 18.2132C86.1704 17.2943 86.4002 16.2659 86.4002 15.1282C86.4002 13.9685 86.1704 12.9292 85.711 12.0103C85.2515 11.0913 84.5951 10.3693 83.7418 9.84416C82.8884 9.29716 81.871 9.02366 80.6895 9.02366C79.508 9.02366 78.4906 9.29716 77.6373 9.84416C76.7839 10.3693 76.1275 11.0913 75.6681 12.0103C75.2086 12.9292 74.9788 13.9685 74.9788 15.1282C74.9788 16.2659 75.1976 17.2943 75.6352 18.2132C76.0947 19.1322 76.7511 19.8652 77.6044 20.4122C78.4578 20.9373 79.4861 21.1999 80.6895 21.1999Z" fill="white"/>
<path d="M46.2863 23.9585V0H52.7191L63.845 20.5781H64.9281L64.2717 21.1689V0H68.0131V23.9585H61.5148L50.3888 3.38045H49.3058L49.9622 2.78969V23.9585H46.2863Z" fill="white"/>
<g clip-path="url(#clip0_0_28)">
<path d="M38.7091 0.00650901V0.55552C38.7091 2.86914 38.7155 5.18369 38.6981 7.49731C38.6963 7.71303 38.5941 7.98337 38.4453 8.1352C33.4754 13.1957 28.4963 18.2451 23.5099 23.2881C23.3749 23.4242 23.1549 23.5492 22.9732 23.5501C20.5554 23.5668 18.1366 23.5612 15.7187 23.5593C15.6594 23.5593 15.6 23.5445 15.486 23.5288V15.7741C15.2733 15.9787 15.1583 16.0843 15.0487 16.1963C12.7249 18.5516 10.4047 20.9106 8.0735 23.2575C7.92837 23.4038 7.69654 23.5473 7.50395 23.5482C5.08607 23.5677 2.66728 23.5603 0.2494 23.5593C0.189159 23.5593 0.12983 23.5482 0.00204491 23.5362V23.0483C0.00204491 20.7347 -0.00616985 18.4201 0.0148234 16.1065C0.0166489 15.8649 0.137132 15.563 0.305078 15.3927C5.24032 10.3655 10.1911 5.35219 15.1318 0.326842C15.3673 0.0870553 15.6019 -0.00182336 15.9305 2.82778e-05C18.1813 0.0129897 20.4321 0.00650901 22.683 0.00650901H23.2279V7.80746C23.447 7.59823 23.5748 7.48342 23.6943 7.36214C26.0072 5.01797 28.322 2.67472 30.6267 0.322213C30.8476 0.0963135 31.0657 -0.00182336 31.3806 2.82778e-05C33.7985 0.0120639 36.2154 0.00650901 38.7091 0.00650901Z" fill="white"/>
</g>
<defs>
<clipPath id="clip0_0_28">
<rect width="38.7107" height="23.563" fill="white"/>
</clipPath>
</defs>
</svg>
